<svg fill="none" viewBox="0 0 64 64" xmlns="http://www.w3.org/2000/svg">
	<rect fill="url(#rim-bg)" height="64" rx="18" width="64" />
	<path
		d="M48 17.8c-6.4-5.9-16.6-6.9-24.2-2.2-7.7 4.8-11.1 14.3-8.1 22.6 3 8.4 11.7 13.7 20.8 12.6"
		stroke="url(#rim-arc)"
		stroke-linecap="round"
		stroke-width="5.5"
	/>
	<path
		d="M19.5 42.5 32 17l12.5 25.5H37L32 32l-5 10.5h-7.5Z"
		fill="white"
	/>
	<path
		d="M43.5 38.7 51 46l-9.8-1.2-4.4 8.9-1.9-11.2-10.8-3.8 11.6-2.1 3.1-10 4.7 12.1Z"
		fill="#67E8F9"
	/>
	<defs>
		<linearGradient
			gradientUnits="userSpaceOnUse"
			id="rim-bg"
			x1="10"
			x2="57"
			y1="8"
			y2="56"
		>
			<stop stop-color="#002B3A" />
			<stop offset="0.55" stop-color="#00506A" />
			<stop offset="1" stop-color="#08111F" />
		</linearGradient>
		<linearGradient
			gradientUnits="userSpaceOnUse"
			id="rim-arc"
			x1="13"
			x2="50"
			y1="13"
			y2="51"
		>
			<stop stop-color="#67E8F9" />
			<stop offset="1" stop-color="#F8FAFC" />
		</linearGradient>
	</defs>
</svg>
